<?xml version="1.0" encoding="UTF-8" standalone="no"?>
<!-- Created with Inkscape (http://www.inkscape.org/) -->

<svg
   xmlns:dc="http://purl.org/dc/elements/1.1/"
   xmlns:cc="http://creativecommons.org/ns#"
   xmlns:rdf="http://www.w3.org/1999/02/22-rdf-syntax-ns#"
   xmlns:svg="http://www.w3.org/2000/svg"
   xmlns="http://www.w3.org/2000/svg"
   xmlns:sodipodi="http://sodipodi.sourceforge.net/DTD/sodipodi-0.dtd"
   xmlns:inkscape="http://www.inkscape.org/namespaces/inkscape"
   width="48"
   height="48"
   viewBox="0 0 48 48.000001"
   id="svg3336"
   version="1.1"
   inkscape:version="0.91 r13725"
   sodipodi:docname="add_peak_large.svg"
   inkscape:export-filename="C:\Users\johan\Documents\Repositories\PeakFit\add_peak_large.png"
   inkscape:export-xdpi="90"
   inkscape:export-ydpi="90">
  <sodipodi:namedview
     id="base"
     pagecolor="#ffffff"
     bordercolor="#666666"
     borderopacity="1.0"
     inkscape:pageopacity="0.0"
     inkscape:pageshadow="2"
     inkscape:zoom="5.6"
     inkscape:cx="34.61504"
     inkscape:cy="20.068446"
     inkscape:document-units="px"
     inkscape:current-layer="layer1"
     showgrid="false"
     units="px"
     inkscape:window-width="2467"
     inkscape:window-height="1417"
     inkscape:window-x="2005"
     inkscape:window-y="-8"
     inkscape:window-maximized="1" />
  <defs
     id="defs3338" />
  <metadata
     id="metadata3341">
    <rdf:RDF>
      <cc:Work
         rdf:about="">
        <dc:format>image/svg+xml</dc:format>
        <dc:type
           rdf:resource="http://purl.org/dc/dcmitype/StillImage" />
        <dc:title></dc:title>
      </cc:Work>
    </rdf:RDF>
  </metadata>
  <g
     transform="translate(0,-1004.3622)"
     id="layer1"
     inkscape:groupmode="layer"
     inkscape:label="Layer 1">
    <path
       id="path3441"
       title="t exp(-pow(t,2))"
       d="m -9.9287895,1050.9719 c 0.075704,-2e-4 0.1514,-5e-4 0.2271001,-7e-4 0.075704,-3e-4 0.1514,-6e-4 0.227101,-8e-4 0.075704,-2e-4 0.1513997,-5e-4 0.2270997,-9e-4 0.0757,-3e-4 0.1514001,-6e-4 0.2271003,-10e-4 0.0757,-3e-4 0.1514,-7e-4 0.2271001,0 0.0757,-4e-4 0.1514002,-8e-4 0.2271002,0 0.0757,-4e-4 0.1514001,-9e-4 0.2271002,0 0.0757,-5e-4 0.1514001,-10e-4 0.2271002,0 0.0757,-6e-4 0.1514001,0 0.2271002,0 0.0757,-6e-4 0.1514002,0 0.2271002,0 0.0757,-7e-4 0.1514001,0 0.2271002,0 0.0757,-7e-4 0.1514001,0 0.2271002,0 0.0757,-8e-4 0.1514001,0 0.2271002,0 0.0757,-9e-4 0.1514001,0 0.2271002,0 0.0757,0 0.1514001,0 0.2271001,0 0.0757,0 0.1514002,0 0.2271003,0 0.0757,0 0.1514001,0 0.2271002,0 0.0757,0 0.1514001,0 0.2271001,0 0.0757,0 0.1514002,0 0.2271002,0 0.0757,0 0.1514002,0 0.2271003,-0.01 0.0757,0 0.1514,0 0.2271002,-0.01 0.0757,0 0.1514001,0 0.2271001,-0.01 0.0757,0 0.1514002,0 0.2271002,-0.01 0.0757,0 0.1514001,-0.01 0.2271003,-0.01 0.0757,0 0.1514,-0.01 0.2271001,-0.01 0.0757,0 0.1514002,-0.01 0.2271002,-0.01 0.0757,0 0.1514002,-0.01 0.2271002,-0.01 0.0757,0 0.1514001,-0.01 0.2271002,-0.011 0.0757,0 0.1514001,-0.01 0.2271002,-0.012 0.0757,0 0.1514002,-0.01 0.2271002,-0.014 0.0757,0 0.1514001,-0.01 0.2271002,-0.015 0.0757,-0.01 0.1514001,-0.01 0.2271002,-0.016 0.0757,-0.01 0.1514001,-0.011 0.2271002,-0.017 0.0757,-0.01 0.1514001,-0.013 0.2271002,-0.019 0.0757,-0.01 0.1514001,-0.014 0.2271001,-0.021 0.0757,-0.01 0.1514002,-0.015 0.2271003,-0.023 0.0757,-0.01 0.1514001,-0.016 0.2271002,-0.024 0.0757,-0.01 0.1514001,-0.017 0.2271002,-0.026 0.0757,-0.01 0.1514001,-0.019 0.2271001,-0.029 0.0757001,-0.01 0.15140017,-0.02 0.22710029,-0.03 0.0757,-0.011 0.15140015,-0.022 0.22710017,-0.033 0.0757,-0.012 0.15140013,-0.024 0.22710019,-0.035 0.0757,-0.013 0.15140013,-0.025 0.22710019,-0.038 0.07570003,-0.014 0.15140014,-0.028 0.22710021,-0.042 0.07570002,-0.015 0.15140012,-0.029 0.22710019,-0.045 0.0757001,-0.016 0.15140013,-0.031 0.2271002,-0.049 0.0757001,-0.017 0.15140012,-0.034 0.22710019,-0.052 0.0757,-0.018 0.15140013,-0.037 0.2271002,-0.056 0.0757001,-0.02 0.15140017,-0.039 0.22710017,-0.061 0.0757,-0.021 0.1514002,-0.042 0.2271002,-0.065 0.0757,-0.023 0.1514001,-0.045 0.2271002,-0.07 0.0757,-0.024 0.1514001,-0.049 0.2271002,-0.075 0.0757,-0.025 0.1514002,-0.052 0.2271002,-0.08 0.0757,-0.027 0.1514002,-0.056 0.2271002,-0.085 0.0757,-0.03 0.1514001,-0.06 0.2271002,-0.091 0.0757,-0.031 0.1514001,-0.064 0.2271002,-0.097 0.0757,-0.033 0.1514002,-0.068 0.2271002,-0.104 0.0757,-0.035 0.1514001,-0.073 0.2271002,-0.1106 0.0757,-0.038 0.1514001,-0.078 0.2271001,-0.1179 0.0757,-0.04 0.1514002,-0.082 0.2271003,-0.1255 0.0757,-0.043 0.1514001,-0.087 0.2271002,-0.1333 0.0757,-0.046 0.1514001,-0.093 0.2271001,-0.1416 0.0757,-0.048 0.1514002,-0.099 0.2271003,-0.1501 0.0757,-0.052 0.1514001,-0.1046 0.2271002,-0.1592 0.0757,-0.055 0.1514001,-0.1107 0.2271002,-0.1684 0.0757,-0.058 0.1514001,-0.1172 0.2271001,-0.1783 0.0757,-0.061 0.1514002,-0.1238 0.2271003,-0.1883 0.0757,-0.065 0.1514,-0.1308 0.2271002,-0.1989 0.0757,-0.068 0.1514001,-0.1381 0.2271001,-0.2098 0.0757,-0.072 0.1514002,-0.1454 0.2271002,-0.221 0.0757,-0.076 0.1514002,-0.1533 0.2271003,-0.2328 0.0757,-0.08 0.1514,-0.1611 0.2271001,-0.2448 0.0757,-0.083 0.1514002,-0.1693 0.2271002,-0.2572 0.0757,-0.088 0.1514002,-0.1779 0.2271002,-0.27 0.0757,-0.092 0.1514001,-0.1865 0.2271003,-0.2831 0.0757,-0.097 0.1514,-0.1956 0.2271001,-0.2967 0.0757,-0.1012 0.1514002,-0.2047 0.2271002,-0.3105 0.0757,-0.1059 0.1514001,-0.2141 0.2271002,-0.3246 0.0757,-0.1107 0.1514001,-0.2237 0.2271002,-0.3391 0.0757,-0.1156 0.1514001,-0.2335 0.2271002,-0.3539 0.0757,-0.1205 0.1514002,-0.2434 0.2271002,-0.3689 0.0757,-0.1255 0.1514001,-0.2536 0.2271002,-0.3842 0.0757,-0.1306 0.1514001,-0.2638 0.2271002,-0.3996 0.0757,-0.1358 0.1514001,-0.2742 0.2271002,-0.4153 0.0757,-0.1412 0.1514001,-0.2849 0.2271002,-0.4313 0.0757,-0.1464 0.1514001,-0.2954 0.2271001,-0.4472 0.0757,-0.1518 0.1514002,-0.3062 0.2271003,-0.4633 0.0757,-0.1572 0.1514,-0.317 0.2271002,-0.4795 0.0757,-0.1626 0.1514,-0.3278 0.2271,-0.4958 0.0757,-0.1679 0.1514,-0.3385 0.227101,-0.5119 0.0757,-0.1734 0.1514,-0.3494 0.2271,-0.5281 0.0757,-0.1787 0.1514,-0.3602 0.2271,-0.5442 0.0757,-0.184 0.1514,-0.3708 0.2271,-0.5602 0.0757,-0.1893 0.1514,-0.3814 0.2271,-0.576 0.0757,-0.1945 0.1514,-0.3918 0.2271,-0.5915 0.0757,-0.1998 0.1514,-0.402 0.2271,-0.6068 0.0757,-0.2048 0.1514,-0.4121 0.2271,-0.6218 0.0757,-0.2098 0.1514,-0.4219 0.227101,-0.6365 0.0757,-0.2145 0.1514,-0.4314 0.2271,-0.6506 0.0757,-0.2192 0.1514,-0.4407 0.227101,-0.6644 0.0757,-0.2237 0.1514,-0.4496 0.2271,-0.6775 0.0757,-0.228 0.1514,-0.4581 0.2271,-0.6901 0.0757,-0.2321 0.1514,-0.4662 0.2271,-0.7022 0.0757,-0.2359 0.1514,-0.4738 0.2271,-0.7134 0.0757,-0.2396 0.1514,-0.4809 0.2271,-0.7239 0.0757,-0.243 0.151401,-0.4876 0.227101,-0.7336 0.0757,-0.2462 0.1514,-0.4938 0.2271,-0.7426 0.0757,-0.2489 0.1514,-0.4992 0.2271,-0.7506 0.0757,-0.2514 0.1514,-0.504 0.2271,-0.7575 0.0757,-0.2536 0.1514,-0.5083 0.2271,-0.7637 0.0757,-0.2554 0.1514,-0.5117 0.2271,-0.7686 0.0757,-0.2569 0.1514,-0.5144 0.2271,-0.7724 0.0757,-0.258 0.1514,-0.5164 0.2271,-0.7752 0.0757,-0.2587 0.151401,-0.5177 0.227101,-0.7767 0.0757,-0.2591 0.151401,-0.5182 0.227101,-0.7771 0.0757,-0.259 0.1514,-0.5177 0.2271,-0.7762 0.0757,-0.2584 0.1514,-0.5164 0.2271,-0.7738 0.0757,-0.2574 0.1514,-0.5143 0.2271,-0.7704 0.0757,-0.256 0.1514,-0.5112 0.2271,-0.7654 0.0757,-0.2541 0.1514,-0.5073 0.2271,-0.7592 0.0757,-0.2518 0.1514,-0.5024 0.2271,-0.7515 0.0757,-0.2491 0.151401,-0.4966 0.227101,-0.7424 0.0757,-0.2459 0.1514,-0.4899 0.2271,-0.7319 0.0757,-0.2421 0.1514,-0.4823 0.2271,-0.7202 0.0757,-0.2378 0.1514,-0.4735 0.2271,-0.7066 0.0757,-0.2332 0.1514,-0.464 0.2271,-0.692 0.0757,-0.228 0.1514,-0.4534 0.2271,-0.6758 0.0757,-0.2224 0.1514,-0.4419 0.2271,-0.6583 0.0757,-0.2163 0.151401,-0.4294 0.227101,-0.6392 0.0757,-0.2098 0.151401,-0.4163 0.227101,-0.619 0.0757,-0.2029 0.1514,-0.4021 0.2271,-0.5974 0.0757,-0.1954 0.1514,-0.3868 0.2271,-0.5744 0.0757,-0.1875 0.1514,-0.371 0.2271,-0.5501 0.0757,-0.1793 0.1514,-0.3543 0.2271,-0.5248 0.0757,-0.1706 0.1514,-0.3366 0.2271,-0.4981 0.0757,-0.1615 0.1514,-0.3184 0.2271,-0.4704 0.0757,-0.1521 0.1514,-0.2994 0.2271,-0.4416 0.0757,-0.1423 0.151401,-0.2796 0.227101,-0.4118 0.0757,-0.1321 0.1514,-0.2591 0.2271,-0.3809 0.0757,-0.1217 0.1514,-0.2382 0.2271,-0.3492 0.0757,-0.111 0.1514,-0.2167 0.2271,-0.3167 0.0757,-0.1001 0.1514,-0.1946 0.2271,-0.2835 0.0757,-0.089 0.151401,-0.1721 0.227101,-0.2495 0.0757,-0.078 0.1514,-0.1491 0.2271,-0.215 0.0757,-0.066 0.1514,-0.1259 0.2271,-0.18 0.0757,-0.054 0.151401,-0.1023 0.227101,-0.1445 0.0757,-0.042 0.1514,-0.079 0.2271,-0.1087 0.0757,-0.03 0.1514,-0.054 0.2271,-0.073 0.0757,-0.019 0.1514,-0.03 0.2271,-0.036 0.0757,-0.01 0.1514,-0.01 0.2271,0 0.0757,0.01 0.1514,0.019 0.2271,0.036 0.0757,0.019 0.1514,0.042 0.2271,0.073 0.0757,0.03 0.1514,0.067 0.2271,0.1087 0.0757,0.042 0.151401,0.09 0.227101,0.1445 0.0757,0.054 0.1514,0.1141 0.2271,0.18 0.0757,0.066 0.1514,0.1375 0.2271,0.215 0.0757,0.077 0.151401,0.1607 0.227101,0.2495 0.0757,0.089 0.1514,0.1834 0.2271,0.2835 0.0757,0.1 0.1514,0.2057 0.2271,0.3167 0.0757,0.111 0.1514,0.2275 0.2271,0.3492 0.0757,0.1218 0.1514,0.2488 0.2271,0.3809 0.0757,0.1322 0.151401,0.2695 0.227101,0.4118 0.0757,0.1422 0.1514,0.2895 0.2271,0.4416 0.0757,0.152 0.1514,0.3089 0.2271,0.4704 0.0757,0.1615 0.1514,0.3276 0.2271,0.4981 0.0757,0.1705 0.1514,0.3455 0.2271,0.5248 0.0757,0.1791 0.1514,0.3626 0.2271,0.5501 0.0757,0.1876 0.1514,0.3791 0.2271,0.5744 0.0757,0.1953 0.1514,0.3945 0.2271,0.5974 0.0757,0.2027 0.151401,0.4092 0.227101,0.619 0.0757,0.2098 0.1514,0.4229 0.227101,0.6392 0.0757,0.2164 0.1514,0.4359 0.2271,0.6583 0.0757,0.2224 0.1514,0.4478 0.2271,0.6758 0.0757,0.228 0.1514,0.4588 0.2271,0.692 0.0757,0.2331 0.1514,0.4688 0.2271,0.7066 0.0757,0.2379 0.1514,0.4781 0.2271,0.7202 0.0757,0.242 0.1514,0.486 0.2271,0.7319 0.0757,0.2458 0.151401,0.4933 0.227101,0.7424 0.0757,0.2491 0.1514,0.4997 0.2271,0.7515 0.0757,0.2519 0.1514,0.5051 0.2271,0.7592 0.0757,0.2542 0.1514,0.5094 0.2271,0.7654 0.0757,0.2561 0.1514,0.513 0.2271,0.7704 0.0757,0.2574 0.1514,0.5154 0.2271,0.7738 0.0757,0.2585 0.1514,0.5172 0.2271,0.7762 0.0757,0.2589 0.1514,0.518 0.227101,0.7771 0.0757,0.259 0.151401,0.518 0.227101,0.7767 0.0757,0.2588 0.1514,0.5172 0.2271,0.7752 0.0757,0.258 0.1514,0.5155 0.2271,0.7724 0.0757,0.2569 0.1514,0.5132 0.2271,0.7686 0.0757,0.2554 0.1514,0.5101 0.2271,0.7637 0.0757,0.2535 0.1514,0.5061 0.2271,0.7575 0.0757,0.2514 0.1514,0.5017 0.2271,0.7506 0.0757,0.2488 0.1514,0.4964 0.2271,0.7426 0.0757,0.246 0.151401,0.4906 0.227101,0.7336 0.0757,0.243 0.1514,0.4843 0.2271,0.7239 0.0757,0.2396 0.1514,0.4775 0.2271,0.7134 0.0757,0.236 0.1514,0.4701 0.2271,0.7022 0.0757,0.2321 0.1514,0.4621 0.2271,0.6901 0.0757,0.2279 0.1514,0.4538 0.2271,0.6775 0.0757,0.2237 0.151401,0.4452 0.227101,0.6644 0.0757,0.2192 0.1514,0.4361 0.2271,0.6506 0.0757,0.2146 0.151401,0.4267 0.227101,0.6365 0.0757,0.2097 0.1514,0.417 0.2271,0.6218 0.0757,0.2048 0.1514,0.407 0.2271,0.6068 0.0757,0.1997 0.1514,0.397 0.2271,0.5915 0.0757,0.1946 0.1514,0.3867 0.2271,0.576 0.0757,0.1894 0.1514,0.3762 0.2271,0.5602 0.0757,0.184 0.1514,0.3655 0.2271,0.5442 0.0757,0.1787 0.1514,0.3547 0.2271,0.5281 0.0757,0.1734 0.151401,0.344 0.227101,0.5119 0.0757,0.168 0.1514,0.3332 0.2271,0.4958 0.0757,0.1625 0.1514,0.3223 0.2271,0.4795 0.0757,0.1571 0.1514,0.3115 0.2271,0.4633 0.0757,0.1518 0.151401,0.3008 0.227101,0.4472 0.0757,0.1465 0.1514,0.2901 0.2271,0.4313 0.0757,0.1411 0.1514,0.2795 0.2271,0.4153 0.0757,0.1358 0.1514,0.269 0.2271,0.3996 0.0757,0.1306 0.151401,0.2587 0.227101,0.3842 0.0757,0.1255 0.1514,0.2484 0.2271,0.3689 0.0757,0.1204 0.1514,0.2383 0.2271,0.3539 0.0757,0.1154 0.1514,0.2284 0.2271,0.3391 0.0757,0.1105 0.1514,0.2187 0.2271,0.3246 0.0757,0.1058 0.1514,0.2093 0.2271,0.3105 0.0757,0.1011 0.1514,0.2 0.2271,0.2967 0.0757,0.096 0.1514,0.1909 0.2271,0.2831 0.0757,0.092 0.151401,0.1821 0.227101,0.27 0.0757,0.088 0.1514,0.1736 0.2271,0.2572 0.0757,0.083 0.151401,0.1653 0.227101,0.2448 0.0757,0.08 0.1514,0.1571 0.2271,0.2328 0.0757,0.076 0.1514,0.1492 0.2271,0.221 0.0757,0.072 0.1514,0.1417 0.2271,0.2098 0.0757,0.068 0.1514,0.1344 0.2271,0.1989 0.0757,0.065 0.1514,0.1272 0.2271,0.1883 0.0757,0.061 0.151401,0.1204 0.227101,0.1783 0.0757,0.058 0.1514,0.1138 0.2271,0.1684 0.0757,0.055 0.1514,0.1076 0.2271,0.1592 0.0757,0.052 0.1514,0.1015 0.2271,0.1501 0.0757,0.049 0.1514,0.096 0.2271,0.1416 0.0757,0.046 0.1514,0.09 0.2271,0.1333 0.0757,0.043 0.1514,0.084 0.2271,0.1255 0.0757,0.04 0.1514,0.08 0.2271,0.1179 0.0757,0.038 0.151401,0.075 0.227102,0.1106 0.0757,0.035 0.1514,0.071 0.2271,0.104 0.0757,0.033 0.1514,0.066 0.2271,0.097 0.0757,0.031 0.1514,0.062 0.2271,0.091 0.0757,0.029 0.1514,0.058 0.2271,0.085 0.0757,0.027 0.1514,0.054 0.2271,0.08 0.0757,0.025 0.1514,0.051 0.2271,0.075 0.0757,0.024 0.1514,0.047 0.2271,0.07 0.0757,0.023 0.151401,0.044 0.227101,0.065 0.0757,0.021 0.1514,0.041 0.2271,0.061 0.0757,0.02 0.1514,0.038 0.2271,0.056 0.0757,0.018 0.1514,0.035 0.2271,0.052 0.0757,0.017 0.1514,0.033 0.2271,0.049 0.0757,0.016 0.1514,0.03 0.2271,0.045 0.0757,0.015 0.1514,0.028 0.227101,0.042 0.0757,0.014 0.1514,0.026 0.2271,0.038 0.0757,0.013 0.151401,0.025 0.227101,0.035 0.0757,0.012 0.1514,0.023 0.2271,0.033 0.0757,0.011 0.1514,0.021 0.2271,0.03 0.0757,0.01 0.1514,0.02 0.2271,0.029 0.0757,0.01 0.1514,0.018 0.2271,0.026 0.0757,0.01 0.1514,0.017 0.2271,0.024 0.0757,0.01 0.1514,0.015 0.2271,0.023 0.0757,0.01 0.1514,0.014 0.2271,0.021 0.0757,0.01 0.151401,0.013 0.227101,0.019 0.0757,0.01 0.1514,0.012 0.2271,0.017 0.0757,0.01 0.1514,0.011 0.2271,0.016 0.0757,0.01 0.1514,0.01 0.2271,0.015 0.0757,0 0.1514,0.01 0.2271,0.014 0.0757,0 0.151401,0.01 0.227101,0.012 0.0757,0 0.1514,0.01 0.2271,0.011 0.0757,0 0.1514,0.01 0.2271,0.01 0.0757,0 0.151401,0.01 0.227101,0.01 0.0757,0 0.1514,0.01 0.2271,0.01 0.0757,0 0.1514,0.01 0.2271,0.01 0.0757,0 0.1514,0 0.2271,0.01 0.0757,0 0.1514,0 0.2271,0.01 0.0757,0 0.1514,0 0.2271,0.01 0.0757,0 0.1514,0 0.2271,0.01 0.0757,0 0.1514,0 0.2271,0 0.0757,0 0.151401,0 0.227101,0 0.0757,0 0.1514,0 0.2271,0 0.0757,0 0.1514,0 0.2271,0 0.0757,0 0.151401,0 0.227101,0 0.0757,10e-4 0.1514,0 0.2271,0 0.0757,9e-4 0.1514,0 0.2271,0 0.0757,9e-4 0.1514,0 0.2271,0 0.0757,8e-4 0.1514,0 0.2271,0 0.0757,7e-4 0.151401,0 0.227101,0 0.0757,6e-4 0.1514,0 0.2271,0 0.0757,5e-4 0.1514,10e-4 0.2271,0 0.0757,5e-4 0.1514,10e-4 0.2271,0 0.0757,5e-4 0.1514,9e-4 0.2271,0 0.0757,4e-4 0.1514,8e-4 0.2271,0 0.0757,4e-4 0.1514,7e-4 0.2271,10e-4 0.0757,4e-4 0.1514,7e-4 0.2271,9e-4 0.0757,2e-4 0.151401,5e-4 0.227101,8e-4 0.0757,2e-4 0.1514,5e-4 0.227101,7e-4"
       style="fill:none;stroke:#000000;stroke-width:2.945297;stroke-miterlimit:4;stroke-dasharray:none;stroke-opacity:1"
       inkscape:connector-curvature="0" />
    <text
       xml:space="preserve"
       style="font-style:normal;font-weight:normal;font-size:40px;line-height:125%;font-family:sans-serif;letter-spacing:0px;word-spacing:0px;fill:#000000;fill-opacity:1;stroke:none;stroke-width:1px;stroke-linecap:butt;stroke-linejoin:miter;stroke-opacity:1"
       x="13.160156"
       y="1044.3627"
       id="text4247"
       sodipodi:linespacing="125%"><tspan
         sodipodi:role="line"
         id="tspan4249"
         x="13.160156"
         y="1044.3627"
         style="font-style:normal;font-variant:normal;font-weight:bold;font-stretch:normal;font-size:25px;font-family:sans-serif;-inkscape-font-specification:'sans-serif Bold'">+</tspan></text>
  </g>
</svg>
